<?xml version="1.0" standalone="no"?>
<!DOCTYPE svg PUBLIC "-//W3C//DTD SVG 20010904//EN"
 "http://www.w3.org/TR/2001/REC-SVG-20010904/DTD/svg10.dtd">
<svg version="1.0" xmlns="http://www.w3.org/2000/svg"
 width="972.000000pt" height="612.000000pt" viewBox="0 0 972.000000 612.000000"
 preserveAspectRatio="xMidYMid meet">

<g transform="translate(0.000000,612.000000) scale(0.100000,-0.100000)"
fill="#000000" stroke="none">
<path d="M5050 1365 l0 -565 65 0 65 0 0 565 0 565 -65 0 -65 0 0 -565z"/>
<path d="M7030 1365 l0 -567 158 4 c191 5 241 20 331 104 65 60 93 113 111
214 29 159 -40 307 -172 372 -41 20 -179 58 -213 58 -3 0 -5 -27 -5 -60 0 -68
14 -83 85 -95 129 -20 196 -126 167 -265 -16 -75 -56 -128 -121 -162 -44 -23
-66 -28 -127 -28 l-74 0 -2 493 -3 492 -67 3 -68 3 0 -566z"/>
<path d="M6280 1555 c-30 -13 -55 -29 -54 -37 1 -7 52 -141 115 -296 l114
-284 -63 -121 c-34 -67 -62 -132 -62 -144 0 -12 9 -31 21 -42 22 -20 77 -47
83 -40 9 12 466 920 466 927 0 10 -109 64 -118 58 -4 -2 -59 -108 -122 -235
-63 -127 -117 -231 -120 -231 -3 0 -48 106 -100 235 -52 129 -97 235 -100 234
-3 0 -30 -11 -60 -24z"/>
<path d="M8758 1523 l-47 -48 119 -125 c66 -69 119 -131 120 -137 0 -7 -65
-83 -145 -170 -80 -86 -145 -159 -144 -162 1 -3 22 -25 48 -48 l48 -43 143
153 c78 83 148 152 155 152 7 0 74 -66 149 -147 76 -82 142 -148 149 -148 6 0
30 19 54 42 l42 41 -92 100 c-51 55 -118 128 -150 163 l-57 63 125 133 125
133 -51 48 -51 48 -82 -88 c-45 -49 -100 -107 -121 -131 l-40 -43 -120 130
c-66 72 -122 131 -125 131 -3 0 -27 -21 -52 -47z"/>
<path d="M8083 1549 c-247 -48 -381 -307 -275 -533 53 -113 155 -191 284 -217
154 -31 326 59 400 209 31 62 33 74 33 167 0 88 -3 107 -27 157 -53 113 -158
195 -279 218 -59 11 -77 11 -136 -1z m139 -143 c104 -31 168 -120 168 -230 -1
-142 -100 -241 -240 -240 -99 1 -175 49 -216 139 -41 87 -29 182 32 253 69 81
157 108 256 78z"/>
<path d="M4290 1071 l0 -481 70 0 70 0 0 410 0 410 66 0 c118 0 193 -39 236
-123 30 -59 36 -163 13 -223 -28 -72 -73 -99 -222 -130 -34 -7 -29 -40 11 -80
40 -40 79 -44 156 -15 148 56 231 214 202 386 -23 138 -91 232 -210 288 -65
31 -71 32 -229 35 l-163 4 0 -481z"/>
<path d="M5960 1484 l0 -66 -41 37 c-116 104 -289 112 -427 18 -196 -133 -217
-428 -42 -586 143 -129 320 -134 473 -15 l37 30 0 -51 0 -51 65 0 65 0 0 375
0 375 -65 0 -65 0 0 -66z m-179 -94 c45 -13 114 -72 138 -119 48 -94 31 -201
-44 -276 -150 -150 -405 -48 -405 163 0 34 6 77 13 95 47 111 176 171 298 137z"/>
<path d="M9580 870 l0 -70 70 0 70 0 0 70 0 70 -70 0 -70 0 0 -70z"/>
</g>
</svg>
